<svg width="160" height="108" viewBox="0 0 160 108" fill="none" xmlns="http://www.w3.org/2000/svg">
<circle cx="2.74576" cy="2.74576" r="2.74576" fill="#ADA7FF"/>
<circle cx="2.74576" cy="28.3729" r="2.74576" fill="#ADA7FF"/>
<circle cx="2.74576" cy="54" r="2.74576" fill="#ADA7FF"/>
<circle cx="2.74576" cy="79.6271" r="2.74576" fill="#ADA7FF"/>
<circle cx="2.74576" cy="105.254" r="2.74576" fill="#ADA7FF"/>
<circle cx="53.9997" cy="2.74576" r="2.74576" fill="#ADA7FF"/>
<circle cx="53.9997" cy="28.3729" r="2.74576" fill="#ADA7FF"/>
<circle cx="53.9997" cy="54" r="2.74576" fill="#ADA7FF"/>
<circle cx="53.9997" cy="79.6271" r="2.74576" fill="#ADA7FF"/>
<circle cx="53.9997" cy="105.254" r="2.74576" fill="#ADA7FF"/>
<circle cx="105.254" cy="2.74576" r="2.74576" fill="#ADA7FF"/>
<circle cx="105.254" cy="28.3729" r="2.74576" fill="#ADA7FF"/>
<circle cx="105.254" cy="54" r="2.74576" fill="#ADA7FF"/>
<circle cx="105.254" cy="79.6271" r="2.74576" fill="#ADA7FF"/>
<circle cx="105.254" cy="105.254" r="2.74576" fill="#ADA7FF"/>
<circle cx="156.508" cy="2.74576" r="2.74576" fill="#ADA7FF"/>
<circle cx="156.508" cy="28.3729" r="2.74576" fill="#ADA7FF"/>
<circle cx="156.508" cy="54" r="2.74576" fill="#ADA7FF"/>
<circle cx="156.508" cy="79.6271" r="2.74576" fill="#ADA7FF"/>
<circle cx="156.508" cy="105.254" r="2.74576" fill="#ADA7FF"/>
<circle cx="28.3732" cy="2.74576" r="2.74576" fill="#ADA7FF"/>
<circle cx="28.3732" cy="28.3729" r="2.74576" fill="#ADA7FF"/>
<circle cx="28.3732" cy="54" r="2.74576" fill="#ADA7FF"/>
<circle cx="28.3732" cy="79.6271" r="2.74576" fill="#ADA7FF"/>
<circle cx="28.3732" cy="105.254" r="2.74576" fill="#ADA7FF"/>
<circle cx="79.6271" cy="2.74576" r="2.74576" fill="#ADA7FF"/>
<circle cx="79.6271" cy="28.3729" r="2.74576" fill="#ADA7FF"/>
<circle cx="79.6271" cy="54" r="2.74576" fill="#ADA7FF"/>
<circle cx="79.6271" cy="79.6271" r="2.74576" fill="#ADA7FF"/>
<circle cx="79.6271" cy="105.254" r="2.74576" fill="#ADA7FF"/>
<circle cx="130.882" cy="2.74576" r="2.74576" fill="#ADA7FF"/>
<circle cx="130.882" cy="28.3729" r="2.74576" fill="#ADA7FF"/>
<circle cx="130.882" cy="54" r="2.74576" fill="#ADA7FF"/>
<circle cx="130.882" cy="79.6271" r="2.74576" fill="#ADA7FF"/>
<circle cx="130.882" cy="105.254" r="2.74576" fill="#ADA7FF"/>
</svg>
