<svg width="65" height="65" viewBox="0 0 65 65" fill="none" xmlns="http://www.w3.org/2000/svg">
<rect width="65" height="65" rx="20" fill="#FEF4E4"/>
<path d="M45.1875 26.9091H19.8125C18.8115 26.9091 18 26.0238 18 24.9318V20.9773C18 19.8853 18.8115 19 19.8125 19H45.1875C46.1885 19 47 19.8853 47 20.9773V24.9318C47 26.0238 46.1885 26.9091 45.1875 26.9091ZM42.4688 21.4716C41.718 21.4716 41.1094 22.1355 41.1094 22.9545C41.1094 23.7736 41.718 24.4375 42.4688 24.4375C43.2195 24.4375 43.8281 23.7736 43.8281 22.9545C43.8281 22.1355 43.2195 21.4716 42.4688 21.4716ZM38.8438 21.4716C38.093 21.4716 37.4844 22.1355 37.4844 22.9545C37.4844 23.7736 38.093 24.4375 38.8438 24.4375C39.5945 24.4375 40.2031 23.7736 40.2031 22.9545C40.2031 22.1355 39.5945 21.4716 38.8438 21.4716ZM45.1875 36.7955H19.8125C18.8115 36.7955 18 35.9102 18 34.8182V30.8636C18 29.7716 18.8115 28.8864 19.8125 28.8864H45.1875C46.1885 28.8864 47 29.7716 47 30.8636V34.8182C47 35.9102 46.1885 36.7955 45.1875 36.7955ZM42.4688 31.358C41.718 31.358 41.1094 32.0219 41.1094 32.8409C41.1094 33.6599 41.718 34.3239 42.4688 34.3239C43.2195 34.3239 43.8281 33.6599 43.8281 32.8409C43.8281 32.0219 43.2195 31.358 42.4688 31.358ZM38.8438 31.358C38.093 31.358 37.4844 32.0219 37.4844 32.8409C37.4844 33.6599 38.093 34.3239 38.8438 34.3239C39.5945 34.3239 40.2031 33.6599 40.2031 32.8409C40.2031 32.0219 39.5945 31.358 38.8438 31.358ZM45.1875 46.6818H19.8125C18.8115 46.6818 18 45.7966 18 44.7045V40.75C18 39.658 18.8115 38.7727 19.8125 38.7727H45.1875C46.1885 38.7727 47 39.658 47 40.75V44.7045C47 45.7966 46.1885 46.6818 45.1875 46.6818ZM42.4688 41.2443C41.718 41.2443 41.1094 41.9082 41.1094 42.7273C41.1094 43.5463 41.718 44.2102 42.4688 44.2102C43.2195 44.2102 43.8281 43.5463 43.8281 42.7273C43.8281 41.9082 43.2195 41.2443 42.4688 41.2443ZM38.8438 41.2443C38.093 41.2443 37.4844 41.9082 37.4844 42.7273C37.4844 43.5463 38.093 44.2102 38.8438 44.2102C39.5945 44.2102 40.2031 43.5463 40.2031 42.7273C40.2031 41.9082 39.5945 41.2443 38.8438 41.2443Z" fill="#F7C261"/>
</svg>
