<svg width="20" height="20" viewBox="0 0 20 20" fill="none" xmlns="http://www.w3.org/2000/svg">
<path d="M10 20C15.5142 20 20 15.5133 20 10C20 4.48667 15.5133 0 10 0C4.48667 0 0 4.48583 0 10C0 15.5142 4.48583 20 10 20ZM10 1.25C14.8233 1.25 18.75 5.175 18.75 10C18.75 14.8233 14.8233 18.75 10 18.75C5.175 18.75 1.25 14.8233 1.25 10C1.25 5.175 5.175 1.25 10 1.25Z" fill="#55527C"/>
<path d="M14.7848 4.22583C13.4865 3.1475 11.819 2.5 9.99978 2.5C9.47478 2.5 8.96229 2.555 8.46729 2.6575C9.37729 3.9475 10.204 5.29 10.9315 6.68167C12.3073 6.04 13.6023 5.2125 14.7848 4.22583Z" fill="#55527C"/>
<path d="M12.3883 9.87659C14.0483 9.53492 15.7758 9.50325 17.4883 9.78742C17.4383 7.99992 16.7658 6.36992 15.6758 5.10742C14.3892 6.19159 12.9742 7.08992 11.4717 7.79242C11.8 8.47742 12.105 9.17159 12.3883 9.87659Z" fill="#55527C"/>
<path d="M9.76491 7.15411C9.01324 5.72827 8.16241 4.35327 7.21241 3.04077C4.96074 3.94327 3.25408 5.90327 2.69824 8.30911C5.12574 8.41244 7.52824 8.00827 9.76491 7.15411Z" fill="#55527C"/>
<path d="M11.17 10.1875C10.9092 9.54495 10.6267 8.91245 10.325 8.28662C8.16 9.12995 5.8475 9.58995 3.49583 9.58995C3.1725 9.58995 2.8475 9.56995 2.5225 9.55245C2.51417 9.70079 2.5 9.84912 2.5 9.99995C2.5 11.8416 3.16667 13.5266 4.2675 14.8316C6.06833 12.595 8.49 10.9925 11.17 10.1875Z" fill="#55527C"/>
<path d="M12.8477 11.0592C13.4435 12.7225 13.911 14.4317 14.2543 16.1734C15.9443 15.0075 17.1243 13.1659 17.4202 11.0384C15.8877 10.7675 14.3385 10.7792 12.8477 11.0592Z" fill="#55527C"/>
<path d="M5.1543 15.72C6.46263 16.8291 8.15096 17.5 10.0001 17.5C11.1101 17.5 12.161 17.2525 13.1085 16.8191C12.7651 14.9516 12.2651 13.1241 11.6193 11.35C9.0993 12.0858 6.82346 13.5983 5.1543 15.72Z" fill="#55527C"/>
</svg>
