<svg width="65" height="65" viewBox="0 0 65 65" fill="none" xmlns="http://www.w3.org/2000/svg">
<rect width="65" height="65" rx="20" fill="#E9F9FF"/>
<path d="M30.6378 48.2003L27.874 47.1206C27.584 47.0108 27.4209 46.6021 27.5024 46.2117L33.6871 17.5285C33.7687 17.138 34.0722 16.9184 34.3622 17.0282L37.126 18.108C37.416 18.2178 37.5791 18.6265 37.4976 19.0169L31.3129 47.7001C31.2268 48.0905 30.9278 48.3163 30.6378 48.2003ZM25.4726 41.3559L27.4435 38.5254C27.6519 38.2265 27.6383 37.7507 27.4073 37.4762L23.3023 32.6143L27.4073 27.7524C27.6383 27.4779 27.6565 27.0021 27.4435 26.7032L25.4726 23.8727C25.2687 23.5799 24.9243 23.5616 24.7023 23.8422L18.1733 32.0775C17.9422 32.3642 17.9422 32.8583 18.1733 33.145L24.7023 41.3864C24.9243 41.667 25.2687 41.6548 25.4726 41.3559ZM40.2977 41.3925L46.8267 33.1511C47.0578 32.8644 47.0578 32.3703 46.8267 32.0836L40.2977 23.8361C40.0802 23.5616 39.7358 23.5738 39.5274 23.8666L37.5565 26.6971C37.3481 26.996 37.3617 27.4718 37.5927 27.7463L41.6977 32.6143L37.5927 37.4762C37.3617 37.7507 37.3435 38.2265 37.5565 38.5254L39.5274 41.3559C39.7313 41.6548 40.0757 41.667 40.2977 41.3925Z" fill="#58CFFD"/>
</svg>
