<svg width="65" height="65" viewBox="0 0 65 65" fill="none" xmlns="http://www.w3.org/2000/svg">
<rect width="65" height="65" rx="20" fill="#F4F3FE"/>
<path d="M46.7871 41.3276L33.0145 47.8721C32.852 47.9386 32.6771 47.9729 32.5004 47.9729C32.3236 47.9729 32.1487 47.9386 31.9862 47.8721L18.2129 41.3276C17.9325 41.1937 17.9325 40.9743 18.2129 40.8398L21.5113 39.2756C21.674 39.2091 21.8491 39.1748 22.0261 39.1748C22.2031 39.1748 22.3783 39.2091 22.5409 39.2756L31.9862 43.7582C32.1486 43.8251 32.3235 43.8596 32.5004 43.8596C32.6772 43.8596 32.8521 43.8251 33.0145 43.7582L42.4598 39.2756C42.6223 39.2091 42.7973 39.1747 42.9742 39.1747C43.1511 39.1747 43.3261 39.2091 43.4887 39.2756L46.7871 40.8432C47.071 40.9743 47.071 41.1937 46.7871 41.3276ZM46.7871 32.1932L43.4887 30.6256C43.3261 30.5591 43.1511 30.5247 42.9742 30.5247C42.7973 30.5247 42.6223 30.5591 42.4598 30.6256L33.0145 35.1135C32.8519 35.1798 32.6771 35.2139 32.5004 35.2139C32.3236 35.2139 32.1488 35.1798 31.9862 35.1135L22.5409 30.6256C22.3783 30.5591 22.2031 30.5248 22.0261 30.5248C21.8491 30.5248 21.674 30.5591 21.5113 30.6256L18.2129 32.1932C17.9325 32.327 17.9325 32.5471 18.2129 32.6822L31.9862 39.2254C32.1487 39.292 32.3236 39.3263 32.5004 39.3263C32.6771 39.3263 32.852 39.292 33.0145 39.2254L46.7871 32.6822C47.071 32.5471 47.071 32.3276 46.7871 32.1932ZM18.2129 24.5849L31.9855 30.6256C32.316 30.7494 32.6833 30.7494 33.0138 30.6256L46.7871 24.5849C47.0675 24.4604 47.0675 24.2577 46.7871 24.1339L33.0138 18.0938C32.6836 17.9687 32.3157 17.9687 31.9855 18.0938L18.2129 24.1339C17.929 24.2577 17.929 24.4604 18.2129 24.5849Z" fill="#6B5FFA"/>
</svg>
