<svg xmlns="http://www.w3.org/2000/svg" viewBox="0 0 121.91 128"><defs><style>.a{fill:#130f49;}.b{fill:#58cfff;}</style></defs><title>Bez nazwy-1</title><path class="a" d="M54.59,61.61,11.34,22.55l3.34,1.86.23,34.88H3.51V0H4L46.3,38.91l-2.48-1.09L43.58,2.25H54.9V61.61Z" transform="translate(-3.51 0)"/><path class="a" d="M69.62,2.25H80.86v57H69.62Z" transform="translate(-3.51 0)"/><path class="a" d="M14.91,90.64l-.31,2.87,1.7-2.17,18.6-21H49.47L25.91,95.91l23.64,31.47H35.29L17.7,103l-2.79,2.79v21.55H3.51v-57h11.4Z" transform="translate(-3.51 0)"/><path class="a" d="M51.1,98.94a28.1,28.1,0,0,1,2.25-11.16,30,30,0,0,1,6.24-9.34A29.37,29.37,0,0,1,68.85,72,28.56,28.56,0,0,1,91.4,72a30.41,30.41,0,0,1,9.34,6.4,30,30,0,0,1,6.36,9.34,27.78,27.78,0,0,1,2.28,11.16,28.15,28.15,0,0,1-2.28,11.31,29.09,29.09,0,0,1-6.36,9.26,29.94,29.94,0,0,1-9.34,6.24,29.37,29.37,0,0,1-22.55,0,29.19,29.19,0,0,1-15.5-15.5A28.48,28.48,0,0,1,51.1,98.94Zm11.63,0A18.53,18.53,0,0,0,64.08,106a18.27,18.27,0,0,0,3.8,5.81,17.34,17.34,0,0,0,12.67,5.31,16.48,16.48,0,0,0,12.25-5.31,18.84,18.84,0,0,0,5-12.9,19,19,0,0,0-1.36-7.21,18.71,18.71,0,0,0-3.72-5.85A16.79,16.79,0,0,0,87.14,82a17.82,17.82,0,0,0-13.8,0,17.16,17.16,0,0,0-5.58,3.92A18,18,0,0,0,64,91.73,19.37,19.37,0,0,0,62.73,98.94Z" transform="translate(-3.51 0)"/><path class="b" d="M116.16,117.77a5.5,5.5,0,0,1,3.84-1.63,5.77,5.77,0,0,1,5.42,5.66,5.11,5.11,0,0,1-1.74,4.07,5.53,5.53,0,0,1-3.68,1.51,5.73,5.73,0,0,1-3.84-1.51,5.11,5.11,0,0,1-1.74-4.07A5.29,5.29,0,0,1,116.16,117.77Z" transform="translate(-3.51 0)"/></svg>