<svg width="65" height="65" viewBox="0 0 65 65" fill="none" xmlns="http://www.w3.org/2000/svg">
<rect width="65" height="65" rx="20" fill="#FDF5F6"/>
<path d="M27.0625 21.4489C27.0625 18.9918 29.4969 17 32.5 17C35.5031 17 37.9375 18.9918 37.9375 21.4489C37.9375 23.9059 35.5031 25.8977 32.5 25.8977C29.4969 25.8977 27.0625 23.9059 27.0625 21.4489ZM46.2922 21.5337C45.3485 20.7615 43.8182 20.7615 42.8745 21.5337L36.3323 26.8864H28.6676L22.1255 21.5337C21.1818 20.7615 19.6515 20.7615 18.7078 21.5337C17.7641 22.3059 17.7641 23.5578 18.7078 24.33L25.8542 30.1769V46.6591C25.8542 47.7511 26.9361 48.6364 28.2708 48.6364H29.4792C30.8138 48.6364 31.8958 47.7511 31.8958 46.6591V39.7387H33.1042V46.6591C33.1042 47.7511 34.1862 48.6364 35.5208 48.6364H36.7292C38.0639 48.6364 39.1458 47.7511 39.1458 46.6591V30.1769L46.2922 24.3299C47.2359 23.5578 47.2359 22.3059 46.2922 21.5337Z" fill="#EF6465"/>
</svg>
